<svg xmlns="http://www.w3.org/2000/svg" viewBox="0 0 112 112">
  <defs>
    <filter id="softShadow" x="-20%" y="-20%" width="140%" height="150%">
      <feDropShadow dx="0" dy="5" stdDeviation="5" flood-color="#6f513c" flood-opacity=".10"/>
    </filter>
  </defs>
  <g filter="url(#softShadow)">
    <path
      fill="#fffdf8"
      stroke="#2f2119"
      stroke-width="4.2"
      stroke-linecap="round"
      stroke-linejoin="round"
      d="M25.2 39.8c-8.8-15.4 7.2-28.9 21-17.7 6.2-3.2 13.5-3.2 19.8-.2 13.9-11.2 29.6 2.6 20.6 18 7 5.7 10.8 14.1 10.4 24.2-.7 19.4-17.2 33.3-40.9 33.3S15.9 83.5 15 64.1c-.5-10.2 3.1-18.7 10.2-24.3z"
    />
    <path
      fill="none"
      stroke="#2f2119"
      stroke-width="2.4"
      stroke-linecap="round"
      opacity=".55"
      d="M34.2 30.9c-1.7-2.9-1.2-6.2 1.9-8.2M77.4 31.1c1.8-2.8 1.2-6.3-1.9-8.2M29.2 45.8c-2.9 1.6-5.2 4.8-5.6 8.6M86 45.9c3 1.7 5.1 4.9 5.4 8.8"
    />
    <path fill="#f6d8c5" d="M35.6 28.2c3.7-3.8 7.9-3.1 10.6-.2-3.6 1.4-6.7 3.1-9.5 5.2-1.2-1.2-1.6-3-1.1-5z"/>
    <path fill="#f6d8c5" d="M76.5 28.4c-3.8-3.8-8-3-10.7-.1 3.6 1.4 6.7 3.1 9.5 5.2 1.2-1.2 1.7-3 1.2-5.1z"/>
    <ellipse cx="43.2" cy="60.3" rx="5.4" ry="7.6" fill="#2f2119"/>
    <ellipse cx="68.8" cy="60.3" rx="5.4" ry="7.6" fill="#2f2119"/>
    <ellipse cx="35.3" cy="70.5" rx="8.8" ry="6.6" fill="#f7c9c2" opacity=".7"/>
    <ellipse cx="76.7" cy="70.5" rx="8.8" ry="6.6" fill="#f7c9c2" opacity=".7"/>
    <ellipse cx="56" cy="69" rx="5.8" ry="4.5" fill="#2f2119"/>
    <path
      fill="none"
      stroke="#2f2119"
      stroke-width="3.4"
      stroke-linecap="round"
      stroke-linejoin="round"
      d="M56 72.4c-3.8 7.4-12.2 7.4-15.3 1.9M56 72.4c3.8 7.4 12.2 7.4 15.3 1.9"
    />
  </g>
</svg>
