<svg xmlns="http://www.w3.org/2000/svg" viewBox="0 0 64 64">
  <g fill="none" stroke="#7b5c45" stroke-width="3" stroke-linecap="round" stroke-linejoin="round">
    <path d="M19 27h26v13a11 11 0 0 1-11 11h-4a11 11 0 0 1-11-11z"/>
    <path d="M45 31h4a6 6 0 0 1 0 12h-4"/>
    <path d="M17 51h31"/>
    <path d="M27 18c-3-3 3-5 0-9"/>
    <path d="M37 18c-3-3 3-5 0-9"/>
  </g>
  <path fill="#ef8f89" d="M32 42s-7-4-7-8c0-5 5-5 7-1 2-4 7-4 7 1 0 4-7 8-7 8z"/>
  <path fill="#aab89a" d="M30 22c-2-5 1-9 7-11 1 6-1 10-7 11z"/>
</svg>
